<svg xmlns="http://www.w3.org/2000/svg" width="71.604" height="16.075" viewBox="0 0 71.604 16.075"><path fill="#EC1C24" d="M69.136 13.403c-1.347 1.672-3.563 2.076-5.586 2.18H53.31c-1.503-.057-2.855-.115-4.08-1.316-.139.797-1.202 1.305-2.092 1.316H22.311c-1.086.014-2.728-.195-3.642-1.166-1.051 1.027-4.912 1.166-5.64 1.18H7.341c-2.601-.025-4.727-.498-6.195-2.844C.419 11.366.361 10.14.615 8.638c.346-2.058 1.329-6.15 1.329-6.15.497-1.341 1.652-2.011 3.491-2h2.993c1.884 0 1.977.981 1.884 1.363C12.589.128 18.114.015 20.484 1.586 21.929.522 23.952.51 25.547.487h38.962c4.853-.12 6.458 1.71 6.586 4.183 0 0 .258 2.021-.771 3.789.098 1.413-.031 3.37-1.188 4.944z"/><path fill="#231F20" d="M13.032 16.075H7.341c-2.447-.021-4.937-.41-6.601-3.068l-.019-.031c-.712-1.359-.879-2.639-.579-4.418.345-2.05 1.295-6.014 1.336-6.18l.017-.055C2.063.786 3.374.01 5.388.01h3.04c.991 0 1.691.252 2.082.748.077.097.135.195.179.293C11.938.385 13.745 0 15.704 0c1.908 0 3.619.368 4.766 1.016C21.979.061 23.9.034 25.462.01h39.047c.145-.004.297-.007.446-.007 4.225 0 6.452 1.558 6.617 4.627.026.229.212 2.163-.76 3.941.112 2.045-.333 3.811-1.289 5.115-1.563 1.938-4.143 2.283-5.948 2.377H53.31c-1.326-.051-2.68-.104-3.914-1.023-.479.639-1.409 1.012-2.252 1.023H22.225c-.903 0-2.494-.141-3.586-1.023-1.497.92-4.884 1.023-5.602 1.035h-.005zM1.563 12.514c1.34 2.127 3.281 2.58 5.783 2.602h5.678c1.737-.027 4.582-.328 5.311-1.041l.349-.342.335.355c.863.918 2.53 1.018 3.207 1.018l.081-.002h24.832c.688-.01 1.53-.404 1.62-.92l.157-.898.649.639c1.1 1.078 2.334 1.125 3.764 1.18H63.55c1.734-.09 3.92-.398 5.215-2.002 1.053-1.436 1.172-3.301 1.082-4.609l-.009-.148.073-.125c.929-1.598.712-3.469.71-3.489l-.004-.035c-.082-1.604-.76-3.734-5.662-3.734-.142 0-.286.004-.434.007L25.475.969c-1.519.021-3.41.048-4.707 1.003l-.27.198-.278-.186c-.97-.642-2.657-1.025-4.516-1.025-2.107 0-4.063.488-5.103 1.275l-1.071.81.317-1.305a.482.482 0 0 0-.091-.39c-.193-.246-.665-.381-1.328-.381h-3.04c-1.582 0-2.559.543-2.985 1.663-.088.366-.991 4.158-1.315 6.086-.266 1.567-.132 2.631.475 3.797z"/><path fill-rule="evenodd" clip-rule="evenodd" fill="#231F20" d="M14.959 9.909c.208-.059.393-.174.543-.336.299-.289.543-.785.705-1.434.162-.601.208-1.051.126-1.375-.081-.393-.37-.612-.844-.646-.126-.012-.231-.023-.359-.012-.057.012-.115.023-.172.046v-3.7c2.438-.3 4.6.532 5.306 2.326 1.051-1.552 2.704-2.326 4.969-2.303h2.982c.809 0 1.249.684 1.098 1.526l-.278 1.376c-.219.832-.681.969-1.665.969l-1.675.012c-2.104 0-2.069.581-2.347 1.655a4.089 4.089 0 0 0-.126 1.223c-.012.406.347.475.624.486.555.047 1.399.023 2.509-.012.392 0 .809.082.89.174l3.951-6.346c.453-.728.626-1.063 1.515-1.063h1.861c.706.024 1.063.29 1.284 1.19l1.432 7.065-.784-6.683c-.141-.809.276-1.56 1.098-1.572h1.837c.728-.011 1.167.417 1.295 1.283l.207 2.289 1.192-2.484c.347-.729.797-1.088 1.363-1.088h1.939c.741 0 1.158.406 1.238 1.215l.149 2.346 1.227-2.45c.322-.74.716-1.11 1.617-1.11h1.445c.671 0 1.086.336 1.238 1.007 1.107-.798 2.265-1.007 4.043-1.007h2.463c.29 0 .556.095.799.267.207-.172.496-.267.866-.267h5.28c3.11 0 4.244 3.213 1.954 5.722.878 1.986-.033 5.467-4.588 5.363h-4.588c-.394 0-.659-.092-.798-.268-.187.188-.475.279-.892.268h-2.9c-2.983-.012-4.45-1.467-4.414-4.381l-1.723 3.26c-.36.74-.637 1.109-1.214 1.121H44.51c-.752-.012-1.166-.393-1.248-1.145l-.162-2.092-1.075 2.16c-.277.707-.751 1.076-1.443 1.076h-1.839c-.646 0-1.052-.254-1.214-.775-.173.521-.579.775-1.214.775h-1.942c-.716 0-1.144-.334-1.293-1.029l-.196-1.018h-1.735l-.681 1.029c-.532.844-.636 1.018-1.562 1.018h-6.31c-1.757-.035-2.924-.775-3.502-2.207-.914 1.26-2.231 2.021-4.138 2.254V9.909zm-.186.035c.071 0 .127-.023.186-.035v3.699c-.162.012-.336.033-.508.045-1.756.117-3.086-.336-4-1.191-.139.73-.6 1.088-1.41 1.1H6.314c-2.567 0-4.116-1.652-3.584-4.207l1.168-5.768c.162-.762.636-1.134 1.399-1.11h1.652c.647 0 1.271.589 1.121 1.354L6.88 9.676l2.38.025c.081-3.85 1.595-6.266 4.601-7.041.368-.091.74-.161 1.098-.209V6.15c-.243.082-.45.22-.637.429-.23.254-.439.716-.601 1.33-.196.668-.219 1.178-.116 1.512.116.338.406.51.833.543a.825.825 0 0 0 .335-.02z"/><path fill-rule="evenodd" clip-rule="evenodd" fill="#FFF" d="M5.076 3.632h1.861L5.908 8.59c-.126.614-.197 1.03-.197 1.225-.024.418.105.672.429.834.289.137.832.23 1.641.23h1.803l-.324 1.549H7.262c-.938.033-1.607-.033-2.024-.162-.913-.254-1.387-.867-1.457-1.838 0-.357.07-.969.255-1.838l1.04-4.958zm21.604 7.247l-.324 1.549h-3.063c-.578 0-1.028-.033-1.318-.068-1.04-.221-1.688-.832-1.941-1.84-.162-.646-.127-1.479.069-2.449.254-1.178.705-2.149 1.317-2.89.451-.543.971-.937 1.583-1.156.613-.266 1.353-.393 2.22-.393h3.005l-.323 1.583H25.13c-.843 0-1.514.221-1.999.671-.383.358-.706 1.042-.903 1.989-.288 1.295-.197 2.161.197 2.588.323.256.833.416 1.572.416h2.683zm12.897-7.247l.577 6.634 3.261-6.634h2.093l.45 6.634 3.376-6.634h1.907l-4.67 8.796h-2.162l-.473-6.346-3.167 6.346h-2.126l-1.006-8.796zm19.339 0l-.325 1.583h-2.45c-.647 0-1.131.036-1.42.128a1.766 1.766 0 0 0-.832.521 2.478 2.478 0 0 0-.394.508c-.058.197-.197.485-.289.902h4.936l-.324 1.571h-4.969c-.093.74.032 1.295.322 1.584.324.291.936.451 1.839.451h2.392l-.359 1.549h-2.415c-.682 0-1.26-.033-1.746-.104-.772-.129-1.316-.475-1.675-1.064-.485-.797-.577-1.896-.291-3.283.326-1.502 1.031-2.705 2.163-3.57.381-.289.774-.486 1.156-.578.393-.128.901-.197 1.514-.197h3.167zM32.481 8.844h1.261l-.613-3.084-.648 1.063V3.666l2.197-.034 1.767 8.796h-2.184l-.427-2.035H32.48V8.844zm0 0v1.549h-2l-1.283 2.035h-2.196l5.479-8.762v3.156l-1.26 2.022h1.26zm31.116-1.571h.474c.266 0 .451-.023.577-.058.14-.035.266-.07.394-.163.324-.23.521-.519.613-.866.058-.358 0-.613-.231-.775-.161-.139-.449-.196-.901-.196h-.925V3.632h1.803c.774 0 1.318.104 1.643.267.357.22.612.579.703 1.028.105.324.105.669 0 1.028-.091.451-.288.867-.611 1.295-.324.37-.705.625-1.099.786.774.393 1.041 1.098.845 2.07-.129.576-.358 1.063-.706 1.455-.323.313-.683.578-1.076.705-.345.094-.854.162-1.501.162v-1.549c.126-.035.22-.035.278-.035a.836.836 0 0 0 .392-.195c.325-.186.521-.475.614-.869.067-.357 0-.609-.233-.773-.16-.127-.449-.197-.865-.197h-.186V7.273zm-.012 0h.012v1.536H61.17l-.416 2.07h2.843v1.549h-5.074l1.872-8.796h3.201v1.583h-1.654l-.415 2.059h2.058zm-48.661 3.665a2.315 2.315 0 0 0 1.237-.637c.486-.486.843-1.26 1.04-2.266.186-.912.186-1.595 0-2.081-.23-.577-.773-.867-1.652-.867-.22 0-.405 0-.625.024v-1.48c.313-.034.601-.034.948-.059.879 0 1.618.163 2.231.451.705.383 1.121.96 1.259 1.804.127.683.058 1.445-.139 2.346-.161.904-.473 1.677-.923 2.314-.556.809-1.238 1.363-2.105 1.652-.381.162-.797.256-1.271.311v-1.512zm-.011.01c0-.01 0-.01.011-.01v1.512l-.011.012c-.266.023-.52.023-.809.023-.971 0-1.803-.184-2.451-.543-.555-.322-.937-.809-1.133-1.455-.162-.672-.162-1.48.035-2.416.358-1.665 1.029-2.856 2.034-3.56.613-.463 1.387-.752 2.323-.879h.011v1.48c-.011 0-.011 0-.011.01-.555.129-1.04.384-1.387.8-.393.425-.681 1.131-.878 2.092-.22 1.028-.186 1.801.069 2.288.255.484.809.707 1.583.707.221-.001.417-.001.614-.061z"/></svg>