<svg xmlns="http://www.w3.org/2000/svg" id="teste" viewBox="0 0 168.207 126.438"><path fill-rule="evenodd" clip-rule="evenodd" fill="#F6F6F6" d="M0 0h10.607c1.911 0 8.887 1.494 8.887 9.115v12.152h11.397c0 9.82.224 15.573-11.397 15.573v38.369c0 7.263 3.704 6.735 11.397 6.735v14.684H10.949C1.562 96.628 0 90.953 0 82.608V0zm112.949 21.227l16.477 46.966c4.891 11.044-1.799 14.143-13.748 13.631V96.56l13.367-.19c11.447-.16 16.592-9.422 19.584-19.505l19.578-58.845-11.152-.125c-5.201-.119-8.338 2.482-9.416 7.805l-7.186 24.901-8.67-29.361-18.834-.013zm-36.581-.551c28.114-.813 39.476 8.837 39.485 24.499l.01 25.906c.004 10.747-4.588 19.729-14.986 23.686-6.9 2.621-23.279 2.451-30.516.599-18.253-4.666-20.592-36.878.91-41.86 5.695-1.732 17.418-1.035 23.563-4.36 4.061-2.197 6.068-7.862 1.258-10.751-1.775-1.067-4.172-1.705-6.73-2.062v-.009c-4.309-.551-8.621-.724-12.932-.395-.119-4.877.088-10.423-.062-15.253M32.389 61.831v34.798h19.64V73.225c0-15.835-1.609-32.176 15.368-35.825a53.009 53.009 0 0 1 7.157-1.296V20.758c-23.357.2-42.165 8.913-42.165 41.073m68.963-1.815c-5.666 2.873-13.307 3.35-19.648 4.193-8.497 1.344-12.376 9.64-8.967 15.223 4.171 6.83 15.165 5.178 20.922 1.563 8.521-5.348 7.595-12.363 7.693-20.979"/><path d="M1.649 105.931h2.856v13.261h6.433v2.393h-9.29v-15.654zm22.296 9.894c0 4.156-2.926 6.015-5.806 6.015-3.205 0-5.667-2.206-5.667-5.829 0-3.716 2.438-5.992 5.852-5.992 3.368-.001 5.621 2.368 5.621 5.806zm-8.524.115c0 2.184 1.068 3.832 2.81 3.832 1.626 0 2.764-1.602 2.764-3.878 0-1.765-.79-3.785-2.74-3.785-2.021 0-2.834 1.95-2.834 3.831zm8.827 8.268c.929-.069 1.672-.325 2.137-.813.534-.58.743-1.463.743-3.924v-9.197h2.856v10.01c0 2.346-.441 3.809-1.463 4.83-.999.93-2.578 1.324-3.995 1.324l-.278-2.23zm5.899-17.092c0 .836-.604 1.533-1.625 1.533-.952 0-1.556-.697-1.556-1.533 0-.883.627-1.557 1.603-1.557s1.578.674 1.578 1.557zm9.708 14.468l-.186-1.254H39.6c-.697.882-1.881 1.509-3.344 1.509-2.276 0-3.553-1.649-3.553-3.367 0-2.856 2.531-4.296 6.712-4.273v-.186c0-.743-.302-1.974-2.299-1.974-1.115 0-2.276.348-3.042.836l-.557-1.858c.836-.511 2.299-.999 4.087-.999 3.623 0 4.668 2.3 4.668 4.762v4.087c0 1.022.046 2.021.163 2.718h-2.58zm-.372-5.527c-2.021-.047-3.948.395-3.948 2.113 0 1.114.72 1.625 1.625 1.625 1.138 0 1.974-.742 2.229-1.556.07-.209.093-.441.093-.627v-1.555zm21.972-10.962v13.308c0 1.16.046 2.414.093 3.182h-2.555l-.116-1.789h-.046c-.674 1.254-2.044 2.044-3.693 2.044-2.694 0-4.83-2.299-4.83-5.782-.023-3.786 2.346-6.039 5.063-6.039 1.557 0 2.671.65 3.182 1.486h.047v-6.409h2.855zm-2.856 9.894c0-.232-.023-.512-.07-.744-.255-1.114-1.161-2.02-2.461-2.02-1.835 0-2.857 1.625-2.857 3.738 0 2.067 1.022 3.577 2.833 3.577 1.161 0 2.183-.79 2.462-2.021.069-.256.093-.534.093-.836v-1.694zm8.409 1.741c.069 2.044 1.672 2.927 3.483 2.927 1.323 0 2.275-.186 3.135-.512l.418 1.975c-.976.395-2.322.697-3.948.697-3.669 0-5.829-2.254-5.829-5.714 0-3.136 1.904-6.085 5.527-6.085 3.67 0 4.877 3.02 4.877 5.504 0 .535-.046.953-.093 1.208h-7.57zm4.97-1.997c.023-1.045-.441-2.764-2.346-2.764-1.766 0-2.509 1.603-2.624 2.764h4.97zm12.913-6.41h-4.459v-2.392h11.821v2.392h-4.506v13.262h-2.856v-13.262zm9.778 8.407c.069 2.044 1.672 2.927 3.483 2.927 1.323 0 2.275-.186 3.135-.512l.418 1.975c-.976.395-2.322.697-3.948.697-3.669 0-5.829-2.254-5.829-5.714 0-3.136 1.904-6.085 5.527-6.085 3.67 0 4.877 3.02 4.877 5.504 0 .535-.046.953-.093 1.208h-7.57zm4.97-1.997c.022-1.045-.441-2.764-2.346-2.764-1.766 0-2.509 1.603-2.624 2.764h4.97zm5.459-1.092c0-1.301-.023-2.392-.094-3.367h2.462l.116 1.672h.069c.558-.883 1.58-1.928 3.484-1.928 1.486 0 2.647.836 3.135 2.091h.047c.395-.628.859-1.092 1.394-1.417.627-.441 1.347-.674 2.275-.674 1.881 0 3.786 1.277 3.786 4.9v6.666h-2.787v-6.248c0-1.881-.65-2.996-2.021-2.996-.976 0-1.695.697-1.997 1.51-.07.279-.14.627-.14.953v6.781h-2.787v-6.55c0-1.579-.627-2.694-1.95-2.694-1.068 0-1.789.836-2.044 1.626a2.445 2.445 0 0 0-.163.929v6.689h-2.786v-7.943zm26.522 7.943l-.187-1.254h-.069c-.696.882-1.881 1.509-3.344 1.509-2.276 0-3.554-1.649-3.554-3.367 0-2.856 2.531-4.296 6.712-4.273v-.186c0-.743-.302-1.974-2.3-1.974-1.114 0-2.275.348-3.042.836l-.558-1.858c.836-.511 2.3-.999 4.088-.999 3.623 0 4.668 2.3 4.668 4.762v4.087c0 1.022.046 2.021.162 2.718h-2.576zm-.372-5.527c-2.021-.047-3.948.395-3.948 2.113 0 1.114.721 1.625 1.626 1.625 1.138 0 1.974-.742 2.229-1.556.069-.209.093-.441.093-.627v-1.555zm6.133 2.902c.65.395 1.881.813 2.903.813 1.254 0 1.811-.51 1.811-1.254 0-.766-.464-1.16-1.857-1.648-2.206-.767-3.135-1.975-3.112-3.298 0-1.997 1.649-3.554 4.273-3.554 1.254 0 2.346.326 2.996.674l-.558 2.021c-.487-.278-1.394-.65-2.392-.65-1.022 0-1.58.487-1.58 1.185 0 .72.534 1.068 1.975 1.579 2.044.743 2.996 1.788 3.019 3.46 0 2.045-1.602 3.531-4.598 3.531-1.37 0-2.602-.326-3.438-.79l.558-2.069z" fill="#F6F6F6"/></svg>