<svg xmlns="http://www.w3.org/2000/svg" width="1030.9" height="1030.9" viewBox="0 0 1030.9 1030.9"><g fill-rule="evenodd" clip-rule="evenodd" fill="#28ABE3"><path d="M0 428.9v-22c.3-2.1.8-4.2.8-6.3.7-23.2 3.5-46.2 8.5-68.8 24.4-110.6 83.5-198 177.2-261.4C246.1 30.1 312.3 7.7 384.1 1.9 392 1.3 400 .6 407.9 0h21c2.1.3 4.2.6 6.4.8 18.7 2 37.5 2.9 56 6.2C593.6 25.3 678 74.8 743.2 155.4c74.9 92.5 104.4 198.6 88.7 316.8-7.1 53.7-25.3 103.8-52.5 150.6-7.5 13-6.9 18.6 3.6 29.1 69.1 69.2 138.3 138.3 207.4 207.4 13.9 13.9 25.8 29.3 32.7 47.9 3.3 8.9 5.2 18.4 7.7 27.7v19c-.3.6-.7 1.1-.8 1.7-6.5 36.1-28.6 58.7-61.8 71.7-4.5 1.8-9.6 2.4-14.3 3.5h-19c-3.9-.8-7.7-1.6-11.6-2.5-25.1-5.9-45.6-19.5-63.6-37.5-69.7-69.7-139.5-139.4-209.2-209.2-8.4-8.4-15.3-9.4-25.5-3.4-56.1 33-116.5 52.3-181.5 56.9-46.9 3.3-93.2-.7-138.3-13.9-115-33.6-200.5-103.9-257.3-209.1-25-46.5-39.6-96.4-45-148.9C1.7 451.8 1 440.4 0 428.9zm109.6-10.7c0 170.7 137.6 308.7 308 308.8 171.4.1 309.3-137.3 309.4-308.3.1-171.2-137.6-309.1-308.7-309.1-170.9 0-308.7 137.7-308.7 308.6z"/><path d="M167.2 399.3c.5-36.6 7.8-71.7 22-105.4 7.1-16.7 24-27.4 41-26.4 19.6 1.1 34.8 12.9 40.2 31.1 3 10.1 2 20-2 29.7-9.8 23.6-15.4 48.3-14.1 73.9 3.7 77 40 132.9 109.7 166.5 11.9 5.7 21.9 12.8 26.5 25.5 6.4 17.4 3.4 33.4-9.8 46.4-13.4 13.2-29.7 16.3-47 9.1-42-17.5-77.3-44.2-105.7-79.7-31.4-39.2-50.5-83.8-57.5-133.5-1.9-12.3-2.3-24.8-3.3-37.2z"/></g></svg>