<?xml version="1.0" encoding="UTF-8"?><!DOCTYPE svg PUBLIC "-//W3C//DTD SVG 1.1//EN" "http://www.w3.org/Graphics/SVG/1.1/DTD/svg11.dtd"><svg xmlns="http://www.w3.org/2000/svg"><symbol id="locaweb" viewBox="0 0 71.604 16.075"><path fill="#EC1C24" d="M69.136 13.403c-1.347 1.672-3.563 2.076-5.586 2.18H53.31c-1.503-.057-2.855-.115-4.08-1.316-.139.797-1.202 1.305-2.092 1.316H22.311c-1.086.014-2.728-.195-3.642-1.166-1.051 1.027-4.912 1.166-5.64 1.18H7.341c-2.601-.025-4.727-.498-6.195-2.844C.419 11.366.361 10.14.615 8.638c.346-2.058 1.329-6.15 1.329-6.15.497-1.341 1.652-2.011 3.491-2h2.993c1.884 0 1.977.981 1.884 1.363C12.589.128 18.114.015 20.484 1.586 21.929.522 23.952.51 25.547.487h38.962c4.853-.12 6.458 1.71 6.586 4.183 0 0 .258 2.021-.771 3.789.098 1.413-.031 3.37-1.188 4.944z"/><path fill="#231F20" d="M13.032 16.075H7.341c-2.447-.021-4.937-.41-6.601-3.068l-.019-.031c-.712-1.359-.879-2.639-.579-4.418.345-2.05 1.295-6.014 1.336-6.18l.017-.055C2.063.786 3.374.01 5.388.01h3.04c.991 0 1.691.252 2.082.748.077.097.135.195.179.293C11.938.385 13.745 0 15.704 0c1.908 0 3.619.368 4.766 1.016C21.979.061 23.9.034 25.462.01h39.047c.145-.004.297-.007.446-.007 4.225 0 6.452 1.558 6.617 4.627.026.229.212 2.163-.76 3.941.112 2.045-.333 3.811-1.289 5.115-1.563 1.938-4.143 2.283-5.948 2.377H53.31c-1.326-.051-2.68-.104-3.914-1.023-.479.639-1.409 1.012-2.252 1.023H22.225c-.903 0-2.494-.141-3.586-1.023-1.497.92-4.884 1.023-5.602 1.035h-.005zM1.563 12.514c1.34 2.127 3.281 2.58 5.783 2.602h5.678c1.737-.027 4.582-.328 5.311-1.041l.349-.342.335.355c.863.918 2.53 1.018 3.207 1.018l.081-.002h24.832c.688-.01 1.53-.404 1.62-.92l.157-.898.649.639c1.1 1.078 2.334 1.125 3.764 1.18H63.55c1.734-.09 3.92-.398 5.215-2.002 1.053-1.436 1.172-3.301 1.082-4.609l-.009-.148.073-.125c.929-1.598.712-3.469.71-3.489l-.004-.035c-.082-1.604-.76-3.734-5.662-3.734-.142 0-.286.004-.434.007L25.475.969c-1.519.021-3.41.048-4.707 1.003l-.27.198-.278-.186c-.97-.642-2.657-1.025-4.516-1.025-2.107 0-4.063.488-5.103 1.275l-1.071.81.317-1.305a.482.482 0 0 0-.091-.39c-.193-.246-.665-.381-1.328-.381h-3.04c-1.582 0-2.559.543-2.985 1.663-.088.366-.991 4.158-1.315 6.086-.266 1.567-.132 2.631.475 3.797z"/><path fill-rule="evenodd" clip-rule="evenodd" fill="#231F20" d="M14.959 9.909c.208-.059.393-.174.543-.336.299-.289.543-.785.705-1.434.162-.601.208-1.051.126-1.375-.081-.393-.37-.612-.844-.646-.126-.012-.231-.023-.359-.012-.057.012-.115.023-.172.046v-3.7c2.438-.3 4.6.532 5.306 2.326 1.051-1.552 2.704-2.326 4.969-2.303h2.982c.809 0 1.249.684 1.098 1.526l-.278 1.376c-.219.832-.681.969-1.665.969l-1.675.012c-2.104 0-2.069.581-2.347 1.655a4.089 4.089 0 0 0-.126 1.223c-.012.406.347.475.624.486.555.047 1.399.023 2.509-.012.392 0 .809.082.89.174l3.951-6.346c.453-.728.626-1.063 1.515-1.063h1.861c.706.024 1.063.29 1.284 1.19l1.432 7.065-.784-6.683c-.141-.809.276-1.56 1.098-1.572h1.837c.728-.011 1.167.417 1.295 1.283l.207 2.289 1.192-2.484c.347-.729.797-1.088 1.363-1.088h1.939c.741 0 1.158.406 1.238 1.215l.149 2.346 1.227-2.45c.322-.74.716-1.11 1.617-1.11h1.445c.671 0 1.086.336 1.238 1.007 1.107-.798 2.265-1.007 4.043-1.007h2.463c.29 0 .556.095.799.267.207-.172.496-.267.866-.267h5.28c3.11 0 4.244 3.213 1.954 5.722.878 1.986-.033 5.467-4.588 5.363h-4.588c-.394 0-.659-.092-.798-.268-.187.188-.475.279-.892.268h-2.9c-2.983-.012-4.45-1.467-4.414-4.381l-1.723 3.26c-.36.74-.637 1.109-1.214 1.121H44.51c-.752-.012-1.166-.393-1.248-1.145l-.162-2.092-1.075 2.16c-.277.707-.751 1.076-1.443 1.076h-1.839c-.646 0-1.052-.254-1.214-.775-.173.521-.579.775-1.214.775h-1.942c-.716 0-1.144-.334-1.293-1.029l-.196-1.018h-1.735l-.681 1.029c-.532.844-.636 1.018-1.562 1.018h-6.31c-1.757-.035-2.924-.775-3.502-2.207-.914 1.26-2.231 2.021-4.138 2.254V9.909zm-.186.035c.071 0 .127-.023.186-.035v3.699c-.162.012-.336.033-.508.045-1.756.117-3.086-.336-4-1.191-.139.73-.6 1.088-1.41 1.1H6.314c-2.567 0-4.116-1.652-3.584-4.207l1.168-5.768c.162-.762.636-1.134 1.399-1.11h1.652c.647 0 1.271.589 1.121 1.354L6.88 9.676l2.38.025c.081-3.85 1.595-6.266 4.601-7.041.368-.091.74-.161 1.098-.209V6.15c-.243.082-.45.22-.637.429-.23.254-.439.716-.601 1.33-.196.668-.219 1.178-.116 1.512.116.338.406.51.833.543a.825.825 0 0 0 .335-.02z"/><path fill-rule="evenodd" clip-rule="evenodd" fill="#FFF" d="M5.076 3.632h1.861L5.908 8.59c-.126.614-.197 1.03-.197 1.225-.024.418.105.672.429.834.289.137.832.23 1.641.23h1.803l-.324 1.549H7.262c-.938.033-1.607-.033-2.024-.162-.913-.254-1.387-.867-1.457-1.838 0-.357.07-.969.255-1.838l1.04-4.958zm21.604 7.247l-.324 1.549h-3.063c-.578 0-1.028-.033-1.318-.068-1.04-.221-1.688-.832-1.941-1.84-.162-.646-.127-1.479.069-2.449.254-1.178.705-2.149 1.317-2.89.451-.543.971-.937 1.583-1.156.613-.266 1.353-.393 2.22-.393h3.005l-.323 1.583H25.13c-.843 0-1.514.221-1.999.671-.383.358-.706 1.042-.903 1.989-.288 1.295-.197 2.161.197 2.588.323.256.833.416 1.572.416h2.683zm12.897-7.247l.577 6.634 3.261-6.634h2.093l.45 6.634 3.376-6.634h1.907l-4.67 8.796h-2.162l-.473-6.346-3.167 6.346h-2.126l-1.006-8.796zm19.339 0l-.325 1.583h-2.45c-.647 0-1.131.036-1.42.128a1.766 1.766 0 0 0-.832.521 2.478 2.478 0 0 0-.394.508c-.058.197-.197.485-.289.902h4.936l-.324 1.571h-4.969c-.093.74.032 1.295.322 1.584.324.291.936.451 1.839.451h2.392l-.359 1.549h-2.415c-.682 0-1.26-.033-1.746-.104-.772-.129-1.316-.475-1.675-1.064-.485-.797-.577-1.896-.291-3.283.326-1.502 1.031-2.705 2.163-3.57.381-.289.774-.486 1.156-.578.393-.128.901-.197 1.514-.197h3.167zM32.481 8.844h1.261l-.613-3.084-.648 1.063V3.666l2.197-.034 1.767 8.796h-2.184l-.427-2.035H32.48V8.844zm0 0v1.549h-2l-1.283 2.035h-2.196l5.479-8.762v3.156l-1.26 2.022h1.26zm31.116-1.571h.474c.266 0 .451-.023.577-.058.14-.035.266-.07.394-.163.324-.23.521-.519.613-.866.058-.358 0-.613-.231-.775-.161-.139-.449-.196-.901-.196h-.925V3.632h1.803c.774 0 1.318.104 1.643.267.357.22.612.579.703 1.028.105.324.105.669 0 1.028-.091.451-.288.867-.611 1.295-.324.37-.705.625-1.099.786.774.393 1.041 1.098.845 2.07-.129.576-.358 1.063-.706 1.455-.323.313-.683.578-1.076.705-.345.094-.854.162-1.501.162v-1.549c.126-.035.22-.035.278-.035a.836.836 0 0 0 .392-.195c.325-.186.521-.475.614-.869.067-.357 0-.609-.233-.773-.16-.127-.449-.197-.865-.197h-.186V7.273zm-.012 0h.012v1.536H61.17l-.416 2.07h2.843v1.549h-5.074l1.872-8.796h3.201v1.583h-1.654l-.415 2.059h2.058zm-48.661 3.665a2.315 2.315 0 0 0 1.237-.637c.486-.486.843-1.26 1.04-2.266.186-.912.186-1.595 0-2.081-.23-.577-.773-.867-1.652-.867-.22 0-.405 0-.625.024v-1.48c.313-.034.601-.034.948-.059.879 0 1.618.163 2.231.451.705.383 1.121.96 1.259 1.804.127.683.058 1.445-.139 2.346-.161.904-.473 1.677-.923 2.314-.556.809-1.238 1.363-2.105 1.652-.381.162-.797.256-1.271.311v-1.512zm-.011.01c0-.01 0-.01.011-.01v1.512l-.011.012c-.266.023-.52.023-.809.023-.971 0-1.803-.184-2.451-.543-.555-.322-.937-.809-1.133-1.455-.162-.672-.162-1.48.035-2.416.358-1.665 1.029-2.856 2.034-3.56.613-.463 1.387-.752 2.323-.879h.011v1.48c-.011 0-.011 0-.011.01-.555.129-1.04.384-1.387.8-.393.425-.681 1.131-.878 2.092-.22 1.028-.186 1.801.069 2.288.255.484.809.707 1.583.707.221-.001.417-.001.614-.061z"/></symbol><symbol id="logo" viewBox="0 0 168.207 126.438"><path fill-rule="evenodd" clip-rule="evenodd" fill="#F6F6F6" d="M0 0h10.607c1.911 0 8.887 1.494 8.887 9.115v12.152h11.397c0 9.82.224 15.573-11.397 15.573v38.369c0 7.263 3.704 6.735 11.397 6.735v14.684H10.949C1.562 96.628 0 90.953 0 82.608V0zm112.949 21.227l16.477 46.966c4.891 11.044-1.799 14.143-13.748 13.631V96.56l13.367-.19c11.447-.16 16.592-9.422 19.584-19.505l19.578-58.845-11.152-.125c-5.201-.119-8.338 2.482-9.416 7.805l-7.186 24.901-8.67-29.361-18.834-.013zm-36.581-.551c28.114-.813 39.476 8.837 39.485 24.499l.01 25.906c.004 10.747-4.588 19.729-14.986 23.686-6.9 2.621-23.279 2.451-30.516.599-18.253-4.666-20.592-36.878.91-41.86 5.695-1.732 17.418-1.035 23.563-4.36 4.061-2.197 6.068-7.862 1.258-10.751-1.775-1.067-4.172-1.705-6.73-2.062v-.009c-4.309-.551-8.621-.724-12.932-.395-.119-4.877.088-10.423-.062-15.253M32.389 61.831v34.798h19.64V73.225c0-15.835-1.609-32.176 15.368-35.825a53.009 53.009 0 0 1 7.157-1.296V20.758c-23.357.2-42.165 8.913-42.165 41.073m68.963-1.815c-5.666 2.873-13.307 3.35-19.648 4.193-8.497 1.344-12.376 9.64-8.967 15.223 4.171 6.83 15.165 5.178 20.922 1.563 8.521-5.348 7.595-12.363 7.693-20.979"/><path d="M1.649 105.931h2.856v13.261h6.433v2.393h-9.29v-15.654zm22.296 9.894c0 4.156-2.926 6.015-5.806 6.015-3.205 0-5.667-2.206-5.667-5.829 0-3.716 2.438-5.992 5.852-5.992 3.368-.001 5.621 2.368 5.621 5.806zm-8.524.115c0 2.184 1.068 3.832 2.81 3.832 1.626 0 2.764-1.602 2.764-3.878 0-1.765-.79-3.785-2.74-3.785-2.021 0-2.834 1.95-2.834 3.831zm8.827 8.268c.929-.069 1.672-.325 2.137-.813.534-.58.743-1.463.743-3.924v-9.197h2.856v10.01c0 2.346-.441 3.809-1.463 4.83-.999.93-2.578 1.324-3.995 1.324l-.278-2.23zm5.899-17.092c0 .836-.604 1.533-1.625 1.533-.952 0-1.556-.697-1.556-1.533 0-.883.627-1.557 1.603-1.557s1.578.674 1.578 1.557zm9.708 14.468l-.186-1.254H39.6c-.697.882-1.881 1.509-3.344 1.509-2.276 0-3.553-1.649-3.553-3.367 0-2.856 2.531-4.296 6.712-4.273v-.186c0-.743-.302-1.974-2.299-1.974-1.115 0-2.276.348-3.042.836l-.557-1.858c.836-.511 2.299-.999 4.087-.999 3.623 0 4.668 2.3 4.668 4.762v4.087c0 1.022.046 2.021.163 2.718h-2.58zm-.372-5.527c-2.021-.047-3.948.395-3.948 2.113 0 1.114.72 1.625 1.625 1.625 1.138 0 1.974-.742 2.229-1.556.07-.209.093-.441.093-.627v-1.555zm21.972-10.962v13.308c0 1.16.046 2.414.093 3.182h-2.555l-.116-1.789h-.046c-.674 1.254-2.044 2.044-3.693 2.044-2.694 0-4.83-2.299-4.83-5.782-.023-3.786 2.346-6.039 5.063-6.039 1.557 0 2.671.65 3.182 1.486h.047v-6.409h2.855zm-2.856 9.894c0-.232-.023-.512-.07-.744-.255-1.114-1.161-2.02-2.461-2.02-1.835 0-2.857 1.625-2.857 3.738 0 2.067 1.022 3.577 2.833 3.577 1.161 0 2.183-.79 2.462-2.021.069-.256.093-.534.093-.836v-1.694zm8.409 1.741c.069 2.044 1.672 2.927 3.483 2.927 1.323 0 2.275-.186 3.135-.512l.418 1.975c-.976.395-2.322.697-3.948.697-3.669 0-5.829-2.254-5.829-5.714 0-3.136 1.904-6.085 5.527-6.085 3.67 0 4.877 3.02 4.877 5.504 0 .535-.046.953-.093 1.208h-7.57zm4.97-1.997c.023-1.045-.441-2.764-2.346-2.764-1.766 0-2.509 1.603-2.624 2.764h4.97zm12.913-6.41h-4.459v-2.392h11.821v2.392h-4.506v13.262h-2.856v-13.262zm9.778 8.407c.069 2.044 1.672 2.927 3.483 2.927 1.323 0 2.275-.186 3.135-.512l.418 1.975c-.976.395-2.322.697-3.948.697-3.669 0-5.829-2.254-5.829-5.714 0-3.136 1.904-6.085 5.527-6.085 3.67 0 4.877 3.02 4.877 5.504 0 .535-.046.953-.093 1.208h-7.57zm4.97-1.997c.022-1.045-.441-2.764-2.346-2.764-1.766 0-2.509 1.603-2.624 2.764h4.97zm5.459-1.092c0-1.301-.023-2.392-.094-3.367h2.462l.116 1.672h.069c.558-.883 1.58-1.928 3.484-1.928 1.486 0 2.647.836 3.135 2.091h.047c.395-.628.859-1.092 1.394-1.417.627-.441 1.347-.674 2.275-.674 1.881 0 3.786 1.277 3.786 4.9v6.666h-2.787v-6.248c0-1.881-.65-2.996-2.021-2.996-.976 0-1.695.697-1.997 1.51-.07.279-.14.627-.14.953v6.781h-2.787v-6.55c0-1.579-.627-2.694-1.95-2.694-1.068 0-1.789.836-2.044 1.626a2.445 2.445 0 0 0-.163.929v6.689h-2.786v-7.943zm26.522 7.943l-.187-1.254h-.069c-.696.882-1.881 1.509-3.344 1.509-2.276 0-3.554-1.649-3.554-3.367 0-2.856 2.531-4.296 6.712-4.273v-.186c0-.743-.302-1.974-2.3-1.974-1.114 0-2.275.348-3.042.836l-.558-1.858c.836-.511 2.3-.999 4.088-.999 3.623 0 4.668 2.3 4.668 4.762v4.087c0 1.022.046 2.021.162 2.718h-2.576zm-.372-5.527c-2.021-.047-3.948.395-3.948 2.113 0 1.114.721 1.625 1.626 1.625 1.138 0 1.974-.742 2.229-1.556.069-.209.093-.441.093-.627v-1.555zm6.133 2.902c.65.395 1.881.813 2.903.813 1.254 0 1.811-.51 1.811-1.254 0-.766-.464-1.16-1.857-1.648-2.206-.767-3.135-1.975-3.112-3.298 0-1.997 1.649-3.554 4.273-3.554 1.254 0 2.346.326 2.996.674l-.558 2.021c-.487-.278-1.394-.65-2.392-.65-1.022 0-1.58.487-1.58 1.185 0 .72.534 1.068 1.975 1.579 2.044.743 2.996 1.788 3.019 3.46 0 2.045-1.602 3.531-4.598 3.531-1.37 0-2.602-.326-3.438-.79l.558-2.069z" fill="#F6F6F6"/></symbol><symbol id="menu" viewBox="0 0 459 459" fill="#fff"><path d="M0 382.5h459v-51H0v51zM0 255h459v-51H0v51zM0 76.5v51h459v-51H0z"/></symbol><symbol id="traycommerce" viewBox="0 0 251.839 185.401"><path fill-rule="evenodd" clip-rule="evenodd" fill="#FFF" d="M0 0h15.881c2.861 0 13.305 2.236 13.305 13.647v18.194H46.25c0 14.701.336 23.314-17.063 23.314v57.446c0 10.874 5.545 10.086 17.063 10.086v21.983H16.395C2.339 144.672 0 136.174 0 123.681V0zm169.108 31.781l24.667 70.318c7.322 16.534-2.691 21.172-20.582 20.406v22.063l20.014-.284c17.139-.24 24.842-14.105 29.318-29.203l29.314-88.102-16.699-.188c-7.785-.179-12.482 3.716-14.096 11.686l-10.756 37.282-12.982-43.96-28.198-.018zm-54.77-.824c42.094-1.217 59.103 13.23 59.118 36.68l.015 38.787c.007 16.09-6.867 29.539-22.439 35.461-10.33 3.924-34.852 3.67-45.686.897-27.329-6.986-30.832-55.214 1.362-62.675 8.526-2.592 26.079-1.549 35.276-6.527 6.082-3.289 9.088-11.771 1.885-16.097-2.658-1.597-6.246-2.553-10.076-3.085v-.015c-6.452-.824-12.908-1.083-19.363-.591-.178-7.3.133-15.604-.092-22.835zM48.493 92.574v52.098h29.405v-35.039c0-23.709-2.409-48.175 23.009-53.637a78.822 78.822 0 0 1 10.716-1.94V31.081c-34.971.296-63.13 13.343-63.13 61.493zm103.25-2.719c-8.481 4.302-19.923 5.017-29.416 6.277-12.722 2.014-18.53 14.434-13.426 22.793 6.245 10.226 22.704 7.753 31.325 2.341 12.756-8.007 11.37-18.51 11.517-31.411z"/><path d="M20.575 165.526c-.177.226-.35.402-.519.53-.169.129-.415.193-.736.193-.306 0-.603-.093-.893-.277s-.635-.394-1.037-.627a7.827 7.827 0 0 0-1.435-.628c-.555-.185-1.242-.277-2.063-.277-1.045 0-1.962.189-2.75.567a5.213 5.213 0 0 0-1.966 1.628c-.523.708-.913 1.564-1.17 2.569-.258 1.005-.386 2.143-.386 3.413 0 1.318.141 2.492.422 3.521s.688 1.894 1.218 2.593a5.25 5.25 0 0 0 1.93 1.592c.756.362 1.608.543 2.557.543.949 0 1.716-.116 2.303-.35s1.082-.49 1.483-.772c.402-.281.752-.538 1.049-.771.297-.232.631-.35 1.001-.35.482 0 .844.185 1.085.555l1.713 2.171a10.791 10.791 0 0 1-2.147 1.941c-.772.523-1.572.941-2.4 1.255-.829.313-1.685.534-2.569.663a18.2 18.2 0 0 1-2.629.192c-1.528 0-2.967-.285-4.317-.855a10.075 10.075 0 0 1-3.534-2.497c-1.005-1.093-1.801-2.432-2.388-4.016s-.88-3.39-.88-5.415c0-1.817.261-3.502.784-5.054.522-1.552 1.291-2.895 2.303-4.028 1.013-1.134 2.268-2.021 3.763-2.665 1.495-.644 3.216-.965 5.162-.965 1.849 0 3.469.298 4.86.893a11.875 11.875 0 0 1 3.751 2.557l-1.565 2.171zm16.185-5.62c1.849 0 3.525.298 5.029.893 1.503.595 2.786 1.439 3.847 2.532 1.061 1.094 1.881 2.429 2.46 4.004.579 1.576.869 3.337.869 5.283 0 1.962-.29 3.73-.869 5.307-.579 1.576-1.399 2.918-2.46 4.027-1.062 1.11-2.344 1.963-3.847 2.558-1.504.595-3.18.892-5.029.892-1.85 0-3.53-.297-5.042-.892s-2.802-1.447-3.871-2.558c-1.07-1.109-1.898-2.451-2.485-4.027s-.88-3.345-.88-5.307c0-1.946.293-3.707.88-5.283.587-1.575 1.415-2.91 2.485-4.004 1.069-1.093 2.359-1.938 3.871-2.532 1.511-.595 3.192-.893 5.042-.893zm0 20.913c2.058 0 3.582-.691 4.571-2.075.989-1.383 1.483-3.408 1.483-6.078 0-2.669-.495-4.703-1.483-6.103s-2.513-2.099-4.571-2.099c-2.091 0-3.634.704-4.631 2.11-.997 1.407-1.496 3.438-1.496 6.091s.499 4.676 1.496 6.066 2.54 2.088 4.631 2.088zm16.86 4.221v-24.748h3.642c.772 0 1.278.362 1.52 1.086l.386 1.833c.434-.482.888-.925 1.363-1.327a8.78 8.78 0 0 1 1.52-1.037 8.254 8.254 0 0 1 1.737-.688 7.722 7.722 0 0 1 2.038-.253c1.56 0 2.842.422 3.847 1.267 1.005.844 1.757 1.966 2.255 3.364.386-.82.868-1.523 1.447-2.11s1.214-1.065 1.905-1.436a8.75 8.75 0 0 1 2.208-.819 10.59 10.59 0 0 1 2.352-.266c1.367 0 2.581.209 3.642.627a6.985 6.985 0 0 1 2.678 1.833c.724.805 1.274 1.785 1.652 2.943.377 1.157.566 2.484.566 3.979v15.751H82.42v-15.751c0-1.576-.346-2.762-1.037-3.558-.692-.796-1.705-1.194-3.04-1.194-.611 0-1.178.104-1.7.313a4.048 4.048 0 0 0-1.375.905c-.395.394-.704.889-.929 1.483-.226.595-.338 1.278-.338 2.05v15.751H68.02v-15.751c0-1.656-.334-2.862-1.001-3.618-.667-.756-1.652-1.134-2.955-1.134a4.77 4.77 0 0 0-2.4.64c-.748.426-1.443 1.009-2.086 1.748v18.115H53.62zm40.619 0v-24.748h3.642c.772 0 1.278.362 1.52 1.086l.386 1.833c.434-.482.888-.925 1.363-1.327a8.78 8.78 0 0 1 1.52-1.037 8.254 8.254 0 0 1 1.737-.688 7.722 7.722 0 0 1 2.038-.253c1.56 0 2.842.422 3.847 1.267 1.005.844 1.757 1.966 2.255 3.364.386-.82.868-1.523 1.447-2.11s1.214-1.065 1.905-1.436a8.75 8.75 0 0 1 2.208-.819 10.59 10.59 0 0 1 2.352-.266c1.367 0 2.581.209 3.642.627a6.985 6.985 0 0 1 2.678 1.833c.723.805 1.273 1.785 1.652 2.943.377 1.157.566 2.484.566 3.979v15.751h-5.958v-15.751c0-1.576-.346-2.762-1.037-3.558-.692-.796-1.705-1.194-3.04-1.194-.611 0-1.178.104-1.7.313a4.048 4.048 0 0 0-1.375.905c-.395.394-.704.889-.929 1.483-.226.595-.338 1.278-.338 2.05v15.751h-5.982v-15.751c0-1.656-.334-2.862-1.001-3.618-.667-.756-1.652-1.134-2.955-1.134a4.77 4.77 0 0 0-2.4.64c-.748.426-1.443 1.009-2.086 1.748v18.115h-5.957zm50.846-25.134c1.561 0 2.995.249 4.307.748a9.426 9.426 0 0 1 3.389 2.183c.948.957 1.688 2.131 2.219 3.521.531 1.392.797 2.979.797 4.764 0 .45-.021.824-.061 1.122-.041.298-.113.53-.218.699s-.245.289-.422.362a1.807 1.807 0 0 1-.675.108h-15.293c.176 2.541.859 4.406 2.05 5.596 1.19 1.19 2.766 1.785 4.728 1.785.965 0 1.797-.112 2.497-.338.699-.225 1.31-.474 1.833-.748.522-.272.98-.522 1.375-.747.394-.226.775-.338 1.146-.338.241 0 .45.048.628.145.176.097.328.233.457.41l1.737 2.171a9.91 9.91 0 0 1-2.22 1.941c-.819.523-1.676.941-2.568 1.255s-1.801.534-2.726.663-1.821.192-2.689.192c-1.721 0-3.321-.285-4.8-.855a10.732 10.732 0 0 1-3.859-2.533c-1.094-1.117-1.954-2.5-2.581-4.148-.628-1.648-.94-3.558-.94-5.729 0-1.688.273-3.276.82-4.765.546-1.486 1.33-2.781 2.352-3.883 1.021-1.102 2.268-1.974 3.738-2.617s3.131-.964 4.979-.964zm.122 4.27c-1.736 0-3.096.49-4.076 1.471-.981.981-1.608 2.372-1.882 4.173h11.192c0-.771-.105-1.499-.313-2.183-.21-.684-.53-1.282-.965-1.797s-.981-.92-1.641-1.218-1.431-.446-2.315-.446zm15.436 20.864v-24.748h3.497c.611 0 1.037.112 1.279.338.24.226.401.611.482 1.157l.361 2.991c.885-1.527 1.922-2.733 3.111-3.618a6.546 6.546 0 0 1 4.004-1.326c1.223 0 2.235.281 3.039.844l-.771 4.463c-.049.289-.152.494-.313.615-.161.12-.378.181-.651.181-.241 0-.57-.057-.988-.169-.419-.112-.974-.169-1.665-.169-1.238 0-2.3.342-3.184 1.025-.885.684-1.632 1.685-2.243 3.003v15.413h-5.958zm37.098-19.514a2.946 2.946 0 0 1-.519.53c-.169.129-.414.193-.736.193a1.65 1.65 0 0 1-.893-.277c-.289-.185-.635-.394-1.037-.627s-.88-.442-1.435-.628c-.555-.185-1.242-.277-2.063-.277-1.046 0-1.962.189-2.749.567a5.216 5.216 0 0 0-1.967 1.628c-.522.708-.912 1.564-1.17 2.569s-.386 2.143-.386 3.413c0 1.318.141 2.492.423 3.521.281 1.029.688 1.894 1.217 2.593a5.25 5.25 0 0 0 1.93 1.592c.756.362 1.608.543 2.558.543.948 0 1.716-.116 2.304-.35a7.215 7.215 0 0 0 1.482-.772 24.64 24.64 0 0 0 1.05-.771 1.59 1.59 0 0 1 1.001-.35c.482 0 .844.185 1.086.555l1.713 2.171a10.791 10.791 0 0 1-2.147 1.941 11.61 11.61 0 0 1-2.399 1.255c-.829.313-1.686.534-2.569.663-.885.129-1.761.192-2.63.192-1.527 0-2.967-.285-4.316-.855a10.066 10.066 0 0 1-3.534-2.497c-1.005-1.093-1.802-2.432-2.388-4.016-.588-1.584-.881-3.39-.881-5.415 0-1.817.262-3.502.784-5.054s1.29-2.895 2.304-4.028c1.013-1.134 2.268-2.021 3.763-2.665s3.216-.965 5.161-.965c1.85 0 3.47.298 4.861.893a11.86 11.86 0 0 1 3.75 2.557l-1.568 2.171zm15.846-5.62c1.56 0 2.994.249 4.306.748a9.43 9.43 0 0 1 3.39 2.183c.947.957 1.688 2.131 2.219 3.521.53 1.392.796 2.979.796 4.764 0 .45-.021.824-.061 1.122s-.112.53-.218.699a.874.874 0 0 1-.422.362 1.807 1.807 0 0 1-.675.108h-15.293c.177 2.541.86 4.406 2.05 5.596 1.19 1.19 2.766 1.785 4.729 1.785.965 0 1.797-.112 2.496-.338a11.679 11.679 0 0 0 1.834-.748c.521-.272.98-.522 1.375-.747.393-.226.775-.338 1.145-.338.242 0 .451.048.628.145s.329.233.458.41l1.736 2.171a9.906 9.906 0 0 1-2.219 1.941c-.82.523-1.676.941-2.568 1.255s-1.802.534-2.727.663c-.924.129-1.82.192-2.689.192-1.721 0-3.32-.285-4.8-.855a10.74 10.74 0 0 1-3.859-2.533c-1.093-1.117-1.954-2.5-2.581-4.148s-.94-3.558-.94-5.729c0-1.688.273-3.276.82-4.765.546-1.486 1.33-2.781 2.352-3.883 1.021-1.102 2.268-1.974 3.739-2.617 1.47-.642 3.13-.964 4.979-.964zm.121 4.27c-1.737 0-3.096.49-4.076 1.471-.982.981-1.609 2.372-1.883 4.173h11.193c0-.771-.105-1.499-.314-2.183s-.53-1.282-.965-1.797a4.554 4.554 0 0 0-1.641-1.218c-.657-.298-1.43-.446-2.314-.446z" fill="#FFF"/></symbol><symbol id="wave" viewBox="-15.5 2.625 59.828 10.102"><path fill="#FFEA00" d="M32.908 12.726c-3.352 0-5.062-2.141-6.313-3.703-1.207-1.513-1.777-2.084-2.945-2.084-1.163 0-1.729.571-2.938 2.084-1.25 1.563-2.963 3.703-6.313 3.703-3.351 0-5.06-2.141-6.305-3.704C6.882 7.51 6.318 6.939 5.153 6.939c-1.167 0-1.73.571-2.943 2.084-1.248 1.563-2.957 3.703-6.305 3.703-3.351 0-5.064-2.141-6.309-3.704-1.21-1.512-1.779-2.083-2.938-2.083A2.153 2.153 0 0 1-15.5 4.791v-.009c0-1.19.965-2.155 2.157-2.157 3.344 0 5.057 2.144 6.308 3.707 1.208 1.511 1.771 2.08 2.939 2.08 1.163.003 1.727-.569 2.938-2.082 1.251-1.561 2.959-3.703 6.31-3.703 3.347 0 5.058 2.143 6.307 3.705 1.207 1.51 1.775 2.08 2.939 2.083 1.165-.003 1.729-.572 2.939-2.084 1.254-1.563 2.963-3.706 6.311-3.706 3.354.002 5.064 2.142 6.314 3.703 1.209 1.514 1.776 2.086 2.945 2.083 1.168 0 1.737-.568 2.945-2.082 1.251-1.563 2.963-3.704 6.313-3.702a2.16 2.16 0 0 1 2.162 2.155 2.162 2.162 0 0 1-2.158 2.157c-1.17 0-1.737.571-2.947 2.084-1.249 1.563-2.963 3.703-6.314 3.703"/></symbol></svg>