<svg xmlns="http://www.w3.org/2000/svg" width="251.839" height="185.401" viewBox="0 0 251.839 185.401"><path fill-rule="evenodd" clip-rule="evenodd" fill="#FFF" d="M0 0h15.881c2.861 0 13.305 2.236 13.305 13.647v18.194H46.25c0 14.701.336 23.314-17.063 23.314v57.446c0 10.874 5.545 10.086 17.063 10.086v21.983H16.395C2.339 144.672 0 136.174 0 123.681V0zm169.108 31.781l24.667 70.318c7.322 16.534-2.691 21.172-20.582 20.406v22.063l20.014-.284c17.139-.24 24.842-14.105 29.318-29.203l29.314-88.102-16.699-.188c-7.785-.179-12.482 3.716-14.096 11.686l-10.756 37.282-12.982-43.96-28.198-.018zm-54.77-.824c42.094-1.217 59.103 13.23 59.118 36.68l.015 38.787c.007 16.09-6.867 29.539-22.439 35.461-10.33 3.924-34.852 3.67-45.686.897-27.329-6.986-30.832-55.214 1.362-62.675 8.526-2.592 26.079-1.549 35.276-6.527 6.082-3.289 9.088-11.771 1.885-16.097-2.658-1.597-6.246-2.553-10.076-3.085v-.015c-6.452-.824-12.908-1.083-19.363-.591-.178-7.3.133-15.604-.092-22.835zM48.493 92.574v52.098h29.405v-35.039c0-23.709-2.409-48.175 23.009-53.637a78.822 78.822 0 0 1 10.716-1.94V31.081c-34.971.296-63.13 13.343-63.13 61.493zm103.25-2.719c-8.481 4.302-19.923 5.017-29.416 6.277-12.722 2.014-18.53 14.434-13.426 22.793 6.245 10.226 22.704 7.753 31.325 2.341 12.756-8.007 11.37-18.51 11.517-31.411z"/><path d="M20.575 165.526c-.177.226-.35.402-.519.53-.169.129-.415.193-.736.193-.306 0-.603-.093-.893-.277s-.635-.394-1.037-.627a7.827 7.827 0 0 0-1.435-.628c-.555-.185-1.242-.277-2.063-.277-1.045 0-1.962.189-2.75.567a5.213 5.213 0 0 0-1.966 1.628c-.523.708-.913 1.564-1.17 2.569-.258 1.005-.386 2.143-.386 3.413 0 1.318.141 2.492.422 3.521s.688 1.894 1.218 2.593a5.25 5.25 0 0 0 1.93 1.592c.756.362 1.608.543 2.557.543.949 0 1.716-.116 2.303-.35s1.082-.49 1.483-.772c.402-.281.752-.538 1.049-.771.297-.232.631-.35 1.001-.35.482 0 .844.185 1.085.555l1.713 2.171a10.791 10.791 0 0 1-2.147 1.941c-.772.523-1.572.941-2.4 1.255-.829.313-1.685.534-2.569.663a18.2 18.2 0 0 1-2.629.192c-1.528 0-2.967-.285-4.317-.855a10.075 10.075 0 0 1-3.534-2.497c-1.005-1.093-1.801-2.432-2.388-4.016s-.88-3.39-.88-5.415c0-1.817.261-3.502.784-5.054.522-1.552 1.291-2.895 2.303-4.028 1.013-1.134 2.268-2.021 3.763-2.665 1.495-.644 3.216-.965 5.162-.965 1.849 0 3.469.298 4.86.893a11.875 11.875 0 0 1 3.751 2.557l-1.565 2.171zm16.185-5.62c1.849 0 3.525.298 5.029.893 1.503.595 2.786 1.439 3.847 2.532 1.061 1.094 1.881 2.429 2.46 4.004.579 1.576.869 3.337.869 5.283 0 1.962-.29 3.73-.869 5.307-.579 1.576-1.399 2.918-2.46 4.027-1.062 1.11-2.344 1.963-3.847 2.558-1.504.595-3.18.892-5.029.892-1.85 0-3.53-.297-5.042-.892s-2.802-1.447-3.871-2.558c-1.07-1.109-1.898-2.451-2.485-4.027s-.88-3.345-.88-5.307c0-1.946.293-3.707.88-5.283.587-1.575 1.415-2.91 2.485-4.004 1.069-1.093 2.359-1.938 3.871-2.532 1.511-.595 3.192-.893 5.042-.893zm0 20.913c2.058 0 3.582-.691 4.571-2.075.989-1.383 1.483-3.408 1.483-6.078 0-2.669-.495-4.703-1.483-6.103s-2.513-2.099-4.571-2.099c-2.091 0-3.634.704-4.631 2.11-.997 1.407-1.496 3.438-1.496 6.091s.499 4.676 1.496 6.066 2.54 2.088 4.631 2.088zm16.86 4.221v-24.748h3.642c.772 0 1.278.362 1.52 1.086l.386 1.833c.434-.482.888-.925 1.363-1.327a8.78 8.78 0 0 1 1.52-1.037 8.254 8.254 0 0 1 1.737-.688 7.722 7.722 0 0 1 2.038-.253c1.56 0 2.842.422 3.847 1.267 1.005.844 1.757 1.966 2.255 3.364.386-.82.868-1.523 1.447-2.11s1.214-1.065 1.905-1.436a8.75 8.75 0 0 1 2.208-.819 10.59 10.59 0 0 1 2.352-.266c1.367 0 2.581.209 3.642.627a6.985 6.985 0 0 1 2.678 1.833c.724.805 1.274 1.785 1.652 2.943.377 1.157.566 2.484.566 3.979v15.751H82.42v-15.751c0-1.576-.346-2.762-1.037-3.558-.692-.796-1.705-1.194-3.04-1.194-.611 0-1.178.104-1.7.313a4.048 4.048 0 0 0-1.375.905c-.395.394-.704.889-.929 1.483-.226.595-.338 1.278-.338 2.05v15.751H68.02v-15.751c0-1.656-.334-2.862-1.001-3.618-.667-.756-1.652-1.134-2.955-1.134a4.77 4.77 0 0 0-2.4.64c-.748.426-1.443 1.009-2.086 1.748v18.115H53.62zm40.619 0v-24.748h3.642c.772 0 1.278.362 1.52 1.086l.386 1.833c.434-.482.888-.925 1.363-1.327a8.78 8.78 0 0 1 1.52-1.037 8.254 8.254 0 0 1 1.737-.688 7.722 7.722 0 0 1 2.038-.253c1.56 0 2.842.422 3.847 1.267 1.005.844 1.757 1.966 2.255 3.364.386-.82.868-1.523 1.447-2.11s1.214-1.065 1.905-1.436a8.75 8.75 0 0 1 2.208-.819 10.59 10.59 0 0 1 2.352-.266c1.367 0 2.581.209 3.642.627a6.985 6.985 0 0 1 2.678 1.833c.723.805 1.273 1.785 1.652 2.943.377 1.157.566 2.484.566 3.979v15.751h-5.958v-15.751c0-1.576-.346-2.762-1.037-3.558-.692-.796-1.705-1.194-3.04-1.194-.611 0-1.178.104-1.7.313a4.048 4.048 0 0 0-1.375.905c-.395.394-.704.889-.929 1.483-.226.595-.338 1.278-.338 2.05v15.751h-5.982v-15.751c0-1.656-.334-2.862-1.001-3.618-.667-.756-1.652-1.134-2.955-1.134a4.77 4.77 0 0 0-2.4.64c-.748.426-1.443 1.009-2.086 1.748v18.115h-5.957zm50.846-25.134c1.561 0 2.995.249 4.307.748a9.426 9.426 0 0 1 3.389 2.183c.948.957 1.688 2.131 2.219 3.521.531 1.392.797 2.979.797 4.764 0 .45-.021.824-.061 1.122-.041.298-.113.53-.218.699s-.245.289-.422.362a1.807 1.807 0 0 1-.675.108h-15.293c.176 2.541.859 4.406 2.05 5.596 1.19 1.19 2.766 1.785 4.728 1.785.965 0 1.797-.112 2.497-.338.699-.225 1.31-.474 1.833-.748.522-.272.98-.522 1.375-.747.394-.226.775-.338 1.146-.338.241 0 .45.048.628.145.176.097.328.233.457.41l1.737 2.171a9.91 9.91 0 0 1-2.22 1.941c-.819.523-1.676.941-2.568 1.255s-1.801.534-2.726.663-1.821.192-2.689.192c-1.721 0-3.321-.285-4.8-.855a10.732 10.732 0 0 1-3.859-2.533c-1.094-1.117-1.954-2.5-2.581-4.148-.628-1.648-.94-3.558-.94-5.729 0-1.688.273-3.276.82-4.765.546-1.486 1.33-2.781 2.352-3.883 1.021-1.102 2.268-1.974 3.738-2.617s3.131-.964 4.979-.964zm.122 4.27c-1.736 0-3.096.49-4.076 1.471-.981.981-1.608 2.372-1.882 4.173h11.192c0-.771-.105-1.499-.313-2.183-.21-.684-.53-1.282-.965-1.797s-.981-.92-1.641-1.218-1.431-.446-2.315-.446zm15.436 20.864v-24.748h3.497c.611 0 1.037.112 1.279.338.24.226.401.611.482 1.157l.361 2.991c.885-1.527 1.922-2.733 3.111-3.618a6.546 6.546 0 0 1 4.004-1.326c1.223 0 2.235.281 3.039.844l-.771 4.463c-.049.289-.152.494-.313.615-.161.12-.378.181-.651.181-.241 0-.57-.057-.988-.169-.419-.112-.974-.169-1.665-.169-1.238 0-2.3.342-3.184 1.025-.885.684-1.632 1.685-2.243 3.003v15.413h-5.958zm37.098-19.514a2.946 2.946 0 0 1-.519.53c-.169.129-.414.193-.736.193a1.65 1.65 0 0 1-.893-.277c-.289-.185-.635-.394-1.037-.627s-.88-.442-1.435-.628c-.555-.185-1.242-.277-2.063-.277-1.046 0-1.962.189-2.749.567a5.216 5.216 0 0 0-1.967 1.628c-.522.708-.912 1.564-1.17 2.569s-.386 2.143-.386 3.413c0 1.318.141 2.492.423 3.521.281 1.029.688 1.894 1.217 2.593a5.25 5.25 0 0 0 1.93 1.592c.756.362 1.608.543 2.558.543.948 0 1.716-.116 2.304-.35a7.215 7.215 0 0 0 1.482-.772 24.64 24.64 0 0 0 1.05-.771 1.59 1.59 0 0 1 1.001-.35c.482 0 .844.185 1.086.555l1.713 2.171a10.791 10.791 0 0 1-2.147 1.941 11.61 11.61 0 0 1-2.399 1.255c-.829.313-1.686.534-2.569.663-.885.129-1.761.192-2.63.192-1.527 0-2.967-.285-4.316-.855a10.066 10.066 0 0 1-3.534-2.497c-1.005-1.093-1.802-2.432-2.388-4.016-.588-1.584-.881-3.39-.881-5.415 0-1.817.262-3.502.784-5.054s1.29-2.895 2.304-4.028c1.013-1.134 2.268-2.021 3.763-2.665s3.216-.965 5.161-.965c1.85 0 3.47.298 4.861.893a11.86 11.86 0 0 1 3.75 2.557l-1.568 2.171zm15.846-5.62c1.56 0 2.994.249 4.306.748a9.43 9.43 0 0 1 3.39 2.183c.947.957 1.688 2.131 2.219 3.521.53 1.392.796 2.979.796 4.764 0 .45-.021.824-.061 1.122s-.112.53-.218.699a.874.874 0 0 1-.422.362 1.807 1.807 0 0 1-.675.108h-15.293c.177 2.541.86 4.406 2.05 5.596 1.19 1.19 2.766 1.785 4.729 1.785.965 0 1.797-.112 2.496-.338a11.679 11.679 0 0 0 1.834-.748c.521-.272.98-.522 1.375-.747.393-.226.775-.338 1.145-.338.242 0 .451.048.628.145s.329.233.458.41l1.736 2.171a9.906 9.906 0 0 1-2.219 1.941c-.82.523-1.676.941-2.568 1.255s-1.802.534-2.727.663c-.924.129-1.82.192-2.689.192-1.721 0-3.32-.285-4.8-.855a10.74 10.74 0 0 1-3.859-2.533c-1.093-1.117-1.954-2.5-2.581-4.148s-.94-3.558-.94-5.729c0-1.688.273-3.276.82-4.765.546-1.486 1.33-2.781 2.352-3.883 1.021-1.102 2.268-1.974 3.739-2.617 1.47-.642 3.13-.964 4.979-.964zm.121 4.27c-1.737 0-3.096.49-4.076 1.471-.982.981-1.609 2.372-1.883 4.173h11.193c0-.771-.105-1.499-.314-2.183s-.53-1.282-.965-1.797a4.554 4.554 0 0 0-1.641-1.218c-.657-.298-1.43-.446-2.314-.446z" fill="#FFF"/></svg>