<svg xmlns="http://www.w3.org/2000/svg" width="309.8" height="83.1" viewBox="0 0 309.8 83.1"><path fill-rule="evenodd" clip-rule="evenodd" fill="#F6F6F6" d="M0 0h6.9c1.2 0 5.8 1 5.8 5.9v7.9h7.4c0 6.4.1 10.2-7.4 10.2v25c0 4.7 2.4 4.4 7.4 4.4V63h-13C1 63.1 0 59.4 0 53.9V0zm73.7 13.9l10.8 30.7c3.2 7.2-1.2 9.2-9 8.9V63l8.7-.1c7.5-.1 10.8-6.2 12.8-12.7l12.8-38.4-7.3-.1c-3.4-.1-5.4 1.6-6.1 5.1L91.7 33 86 13.9H73.7zm-23.9-.4c18.3-.5 25.8 5.8 25.8 16v16.9c0 7-3 12.9-9.8 15.5-4.5 1.7-15.2 1.6-19.9.4-11.9-3-13.4-24.1.6-27.3 3.7-1.1 11.4-.7 15.4-2.8 2.7-1.4 4-5.1.8-7-1.2-.7-2.7-1.1-4.4-1.3-2.8-.4-5.6-.5-8.4-.3-.1-3.3 0-7-.1-10.1M21.1 40.4v22.7H34V47.8c0-10.3-1-21 10-23.4 1.6-.4 3.1-.7 4.7-.8v-10c-15.3.1-27.6 5.8-27.6 26.8m45-1.2c-3.7 1.9-8.7 2.2-12.8 2.7-5.5.9-8.1 6.3-5.9 9.9 2.7 4.5 9.9 3.4 13.7 1 5.6-3.4 5-8 5-13.6"/><text transform="translate(.001 79.351)"><tspan x="0" y="0" fill="#F6F6F6" font-family="'MyriadPro-Semibold'" font-size="15.158">L</tspan><tspan x="7.6" y="0" fill="#F6F6F6" font-family="'MyriadPro-Semibold'" font-size="15.158">oja de</tspan><tspan x="49.5" y="0" fill="#F6F6F6" font-family="'MyriadPro-Semibold'" font-size="15.158"> </tspan><tspan x="52.4" y="0" fill="#F6F6F6" font-family="'MyriadPro-Semibold'" font-size="15.158">T</tspan><tspan x="59.5" y="0" fill="#F6F6F6" font-family="'MyriadPro-Semibold'" font-size="15.158">emas</tspan></text><text transform="translate(118.827 53.687)"><tspan x="0" y="0" fill="#F6F6F6" font-family="'MyriadPro-Regular'" font-size="31.327">D</tspan><tspan x="20.2" y="0" fill="#F6F6F6" font-family="'MyriadPro-Regular'" font-size="31.327">ocume</tspan><tspan x="106.6" y="0" fill="#F6F6F6" font-family="'MyriadPro-Regular'" font-size="31.327">n</tspan><tspan x="123.1" y="0" fill="#F6F6F6" font-family="'MyriadPro-Regular'" font-size="31.327">tação</tspan></text></svg>