<svg xmlns="http://www.w3.org/2000/svg" width="316.3" height="82.5" viewBox="0 0 316.3 82.5"><path fill="#F6F6F6" d="M0 0h6.9c1.2 0 5.8 1 5.8 5.9v7.9h7.4c0 6.4.1 10.2-7.4 10.2v25c0 4.7 2.4 4.4 7.4 4.4V63h-13C1 63.1 0 59.4 0 53.9V0zm73.7 13.9l10.8 30.7c3.2 7.2-1.2 9.2-9 8.9V63l8.7-.1c7.5-.1 10.8-6.2 12.8-12.7l12.8-38.4-7.3-.1c-3.4-.1-5.4 1.6-6.1 5.1L91.7 33 86 13.9H73.7zm-23.9-.4c18.3-.5 25.8 5.8 25.8 16v16.9c0 7-3 12.9-9.8 15.5-4.5 1.7-15.2 1.6-19.9.4-11.9-3-13.4-24.1.6-27.3 3.7-1.1 11.4-.7 15.4-2.8 2.7-1.4 4-5.1.8-7-1.2-.7-2.7-1.1-4.4-1.3-2.8-.4-5.6-.5-8.4-.3-.1-3.3 0-7-.1-10.1M21.1 40.4v22.7H34V47.8c0-10.3-1-21 10-23.4 1.6-.4 3.1-.7 4.7-.8v-10c-15.3.1-27.6 5.8-27.6 26.8m45-1.2c-3.7 1.9-8.7 2.2-12.8 2.7-5.5.9-8.1 6.3-5.9 9.9 2.7 4.5 9.9 3.4 13.7 1 5.6-3.4 5-8 5-13.6m-65 29.9H3v8.7h4.2v1.6H1.1V69.1zm14.5 6.5c0 2.7-1.9 3.9-3.8 3.9-2.1 0-3.7-1.4-3.7-3.8s1.6-3.9 3.8-3.9c2.2 0 3.7 1.6 3.7 3.8zm-5.5.1c0 1.4.7 2.5 1.8 2.5s1.8-1 1.8-2.5c0-1.2-.5-2.5-1.8-2.5s-1.8 1.2-1.8 2.5zm5.4 5.4c.6 0 1.1-.2 1.4-.5.3-.4.5-1 .5-2.6v-6h1.9v6.5c0 1.5-.3 2.5-1 3.2-.7.6-1.7.9-2.6.9l-.2-1.5zm3.9-11.2c0 .5-.4 1-1.1 1-.6 0-1-.5-1-1 0-.6.4-1 1-1 .7 0 1.1.4 1.1 1zm6 9.5l-.1-.8c-.5.6-1.2 1-2.2 1-1.5 0-2.3-1.1-2.3-2.2 0-1.9 1.7-2.8 4.4-2.8v-.1c0-.5-.2-1.3-1.5-1.3-.7 0-1.5.2-2 .5l-.4-1.2c.5-.3 1.5-.7 2.7-.7 2.4 0 3 1.5 3 3.1v2.7c0 .7 0 1.3.1 1.8h-1.7zm-.2-3.7c-1.3 0-2.6.3-2.6 1.4 0 .7.5 1.1 1.1 1.1.7 0 1.3-.5 1.5-1 0-.1.1-.3.1-.4v-1.1zm13.7-7.1v8.7c0 .8 0 1.6.1 2.1h-1.7l-.1-1.2c-.4.8-1.3 1.3-2.4 1.3-1.8 0-3.2-1.5-3.2-3.8 0-2.5 1.5-3.9 3.3-3.9 1 0 1.7.4 2.1 1v-4.2h1.9zM37 75v-.5c-.2-.7-.8-1.3-1.6-1.3-1.2 0-1.9 1.1-1.9 2.4 0 1.3.7 2.3 1.8 2.3.8 0 1.4-.5 1.6-1.3 0-.2.1-.3.1-.5V75zm5.2 1.2c0 1.3 1.1 1.9 2.3 1.9.9 0 1.5-.1 2-.3l.3 1.3c-.6.3-1.5.5-2.6.5-2.4 0-3.8-1.5-3.8-3.7 0-2 1.2-4 3.6-4 2.4 0 3.2 2 3.2 3.6 0 .3 0 .6-.1.8h-4.9zm3.2-1.3c0-.7-.3-1.8-1.5-1.8s-1.6 1-1.7 1.8h3.2zm10-4.2h-2.9v-1.6h7.7v1.6h-2.9v8.7h-1.9v-8.7zm6.4 5.5c0 1.3 1.1 1.9 2.3 1.9.9 0 1.5-.1 2-.3l.3 1.3c-.6.3-1.5.5-2.6.5-2.4 0-3.8-1.5-3.8-3.7 0-2 1.2-4 3.6-4 2.4 0 3.2 2 3.2 3.6 0 .3 0 .6-.1.8h-4.9zm3.3-1.3c0-.7-.3-1.8-1.5-1.8s-1.6 1-1.7 1.8h3.2zm3.2-.7c0-.8 0-1.6-.1-2.2h1.6l.1 1.1c.4-.6 1-1.3 2.3-1.3 1 0 1.7.5 2 1.4.3-.4.6-.7.9-.9.4-.3.9-.4 1.5-.4 1.2 0 2.5.8 2.5 3.2v4.3h-1.8v-4.1c0-1.2-.4-2-1.3-2-.6 0-1.1.5-1.3 1 0 .2-.1.4-.1.6v4.4h-1.8V75c0-1-.4-1.8-1.3-1.8-.7 0-1.2.5-1.3 1.1-.1.2-.1.4-.1.6v4.4h-1.8v-5.1zm17 5.2l-.1-.8c-.5.6-1.2 1-2.2 1-1.5 0-2.3-1.1-2.3-2.2 0-1.9 1.7-2.8 4.4-2.8v-.1c0-.5-.2-1.3-1.5-1.3-.7 0-1.5.2-2 .5l-.4-1.2c.5-.3 1.5-.7 2.7-.7 2.4 0 3 1.5 3 3.1v2.7c0 .7 0 1.3.1 1.8h-1.7zm-.2-3.7c-1.3 0-2.6.3-2.6 1.4 0 .7.5 1.1 1.1 1.1.7 0 1.3-.5 1.5-1 0-.1.1-.3.1-.4v-1.1zm3.7 1.9c.4.3 1.2.5 1.9.5.8 0 1.2-.3 1.2-.8s-.3-.8-1.2-1.1c-1.4-.5-2-1.3-2-2.2 0-1.3 1.1-2.3 2.8-2.3.8 0 1.5.2 2 .4l-.5 1.5c-.3-.2-.9-.4-1.6-.4-.7 0-1 .3-1 .8s.3.7 1.3 1c1.3.5 2 1.2 2 2.3 0 1.3-1 2.3-3 2.3-.9 0-1.7-.2-2.2-.5l.3-1.5zm32.4-44.7c1.7-.3 3.6-.4 5.8-.4 3.9 0 6.7.9 8.6 2.6 1.9 1.7 3 4.2 3 7.6 0 3.4-1.1 6.3-3 8.2-2 2-5.2 3-9.3 3-1.9 0-3.6-.1-4.9-.3V32.9zm2.7 18.6c.7.1 1.7.2 2.8.2 5.8 0 9-3.3 9-9 0-5-2.8-8.1-8.6-8.1-1.4 0-2.5.1-3.2.3v16.6zM155 46c0 5.6-3.9 8.1-7.5 8.1-4.1 0-7.3-3-7.3-7.8 0-5.1 3.3-8.1 7.5-8.1 4.4 0 7.3 3.1 7.3 7.8zm-12 .1c0 3.3 1.9 5.8 4.6 5.8 2.6 0 4.6-2.5 4.6-5.9 0-2.6-1.3-5.8-4.5-5.8s-4.7 3.1-4.7 5.9zm26.3 7c-.7.4-2.3.9-4.4.9-4.6 0-7.6-3.1-7.6-7.7 0-4.7 3.2-8.1 8.1-8.1 1.6 0 3.1.4 3.8.8l-.6 2.1c-.7-.4-1.7-.7-3.2-.7-3.5 0-5.4 2.6-5.4 5.7 0 3.5 2.3 5.7 5.3 5.7 1.6 0 2.6-.4 3.4-.8l.6 2.1zm15.9-3.5c0 1.6 0 2.9.1 4.1h-2.4l-.2-2.5h-.1c-.7 1.2-2.3 2.8-5 2.8-2.4 0-5.2-1.3-5.2-6.6v-8.9h2.8v8.4c0 2.9.9 4.8 3.4 4.8 1.8 0 3.1-1.3 3.6-2.5.2-.4.3-.9.3-1.4v-9.3h2.8v11.1zm4.6-7c0-1.6 0-2.9-.1-4.1h2.4l.1 2.4h.1c.8-1.4 2.3-2.8 4.8-2.8 2.1 0 3.6 1.3 4.3 3h.1c.5-.8 1.1-1.5 1.7-2 .9-.7 1.9-1.1 3.4-1.1 2 0 5 1.3 5 6.6v8.9h-2.7v-8.6c0-2.9-1.1-4.7-3.3-4.7-1.6 0-2.8 1.2-3.3 2.5-.1.4-.2.9-.2 1.4v9.4h-2.7v-9.1c0-2.4-1.1-4.2-3.2-4.2-1.7 0-3 1.4-3.4 2.8-.2.4-.2.9-.2 1.3v9.1h-2.7V42.6zm27.7 4c.1 3.7 2.4 5.3 5.2 5.3 2 0 3.2-.3 4.2-.8l.5 2c-1 .4-2.6.9-5 .9-4.7 0-7.5-3.1-7.5-7.6 0-4.6 2.7-8.2 7.1-8.2 4.9 0 6.3 4.4 6.3 7.1 0 .6-.1 1-.1 1.3h-10.7zm8.1-2c0-1.8-.7-4.5-3.8-4.5-2.8 0-4 2.6-4.2 4.5h8zm5.9-2c0-1.6 0-2.9-.1-4.1h2.4l.2 2.5h.1c.8-1.4 2.5-2.9 5-2.9 2.1 0 5.4 1.3 5.4 6.5v9.1h-2.8V45c0-2.4-.9-4.5-3.5-4.5-1.8 0-3.2 1.3-3.7 2.8-.1.3-.2.8-.2 1.3v9.1h-2.8V42.6zm19.8-8.4v4.4h3.9v2.1h-3.9v8.2c0 1.9.5 2.9 2.1 2.9.7 0 1.3-.1 1.6-.2l.1 2.1c-.5.2-1.4.4-2.4.4-1.3 0-2.3-.4-3-1.2-.8-.8-1.1-2.2-1.1-3.9v-8.3h-2.3v-2.1h2.3V35l2.7-.8zm15.5 19.5l-.2-1.9h-.1c-.8 1.2-2.5 2.3-4.6 2.3-3.1 0-4.6-2.2-4.6-4.4 0-3.7 3.3-5.7 9.1-5.6v-.3c0-1.3-.3-3.5-3.4-3.5-1.4 0-2.9.4-3.9 1.1l-.6-1.8c1.3-.8 3.1-1.3 5-1.3 4.6 0 5.8 3.2 5.8 6.2v5.7c0 1.3.1 2.6.3 3.6h-2.8zm-.4-7.7c-3-.1-6.4.5-6.4 3.4 0 1.8 1.2 2.6 2.6 2.6 2 0 3.2-1.3 3.7-2.5.1-.3.2-.6.2-.9V46zm17.9 7.1c-.7.3-2.1.8-3.9.9l-.8 1.3c1.2.2 2.2 1 2.2 2.2 0 1.8-1.5 2.5-3.3 2.5-.8 0-1.6-.2-2.1-.5l.5-1.3c.5.3 1.1.5 1.7.5.7 0 1.3-.3 1.3-1 0-.8-1-1.2-2.4-1.3l1.3-2.3c-3.9-.5-6.4-3.4-6.4-7.7 0-4.7 3.2-8.1 8.1-8.1 1.6 0 3.1.4 3.8.8l-.6 2.1c-.7-.4-1.7-.7-3.2-.7-3.5 0-5.4 2.6-5.4 5.7 0 3.5 2.3 5.7 5.3 5.7 1.6 0 2.6-.4 3.4-.8l.5 2zm11.6.6l-.2-1.9h-.1c-.8 1.2-2.5 2.3-4.6 2.3-3.1 0-4.6-2.2-4.6-4.4 0-3.7 3.3-5.7 9.1-5.6v-.3c0-1.3-.3-3.5-3.4-3.5-1.4 0-2.9.4-3.9 1.1l-.6-1.8c1.3-.8 3.1-1.3 5-1.3 4.6 0 5.8 3.2 5.8 6.2v5.7c0 1.3.1 2.6.3 3.6h-2.8zm-7.1-17.8c-.1-2 .8-3.3 2.1-3.3.7 0 1.2.3 1.9.7.5.3.9.5 1.3.5.5 0 .8-.3.9-1.3h1.4c.1 2.1-.7 3.2-2.1 3.2-.7 0-1.3-.3-1.9-.6-.6-.4-1-.6-1.3-.6-.5 0-.8.5-.8 1.4h-1.5zm6.7 10.1c-3-.1-6.4.5-6.4 3.4 0 1.8 1.2 2.6 2.6 2.6 2 0 3.2-1.3 3.7-2.5.1-.3.2-.6.2-.9V46zm20.8 0c0 5.6-3.9 8.1-7.5 8.1-4.1 0-7.3-3-7.3-7.8 0-5.1 3.3-8.1 7.5-8.1 4.4 0 7.3 3.1 7.3 7.8zm-12 .1c0 3.3 1.9 5.8 4.6 5.8 2.6 0 4.6-2.5 4.6-5.9 0-2.6-1.3-5.8-4.5-5.8s-4.7 3.1-4.7 5.9z"/></svg>