<svg xmlns="http://www.w3.org/2000/svg" width="59.828" height="10.102" viewBox="-15.5 2.625 59.828 10.102"><path fill="#FFEA00" d="M32.908 12.726c-3.352 0-5.062-2.141-6.313-3.703-1.207-1.513-1.777-2.084-2.945-2.084-1.163 0-1.729.571-2.938 2.084-1.25 1.563-2.963 3.703-6.313 3.703-3.351 0-5.06-2.141-6.305-3.704C6.882 7.51 6.318 6.939 5.153 6.939c-1.167 0-1.73.571-2.943 2.084-1.248 1.563-2.957 3.703-6.305 3.703-3.351 0-5.064-2.141-6.309-3.704-1.21-1.512-1.779-2.083-2.938-2.083A2.153 2.153 0 0 1-15.5 4.791v-.009c0-1.19.965-2.155 2.157-2.157 3.344 0 5.057 2.144 6.308 3.707 1.208 1.511 1.771 2.08 2.939 2.08 1.163.003 1.727-.569 2.938-2.082 1.251-1.561 2.959-3.703 6.31-3.703 3.347 0 5.058 2.143 6.307 3.705 1.207 1.51 1.775 2.08 2.939 2.083 1.165-.003 1.729-.572 2.939-2.084 1.254-1.563 2.963-3.706 6.311-3.706 3.354.002 5.064 2.142 6.314 3.703 1.209 1.514 1.776 2.086 2.945 2.083 1.168 0 1.737-.568 2.945-2.082 1.251-1.563 2.963-3.704 6.313-3.702a2.16 2.16 0 0 1 2.162 2.155 2.162 2.162 0 0 1-2.158 2.157c-1.17 0-1.737.571-2.947 2.084-1.249 1.563-2.963 3.703-6.314 3.703"/></svg>